<svg width="88" height="88" viewBox="0 0 88 88" fill="none" xmlns="http://www.w3.org/2000/svg">
<rect width="88" height="88" rx="15" fill="white"/>
<g clip-path="url(#clip0_1_3499)">
<path fill-rule="evenodd" clip-rule="evenodd" d="M27.75 28.375C27.75 27.8777 27.5525 27.4008 27.2009 27.0492C26.8492 26.6975 26.3723 26.5 25.875 26.5C25.3777 26.5 24.9008 26.6975 24.5492 27.0492C24.1976 27.4008 24 27.8777 24 28.375V59.625C24 60.66 24.84 61.5 25.875 61.5H62.125C62.6223 61.5 63.0992 61.3025 63.4509 60.9508C63.8025 60.5992 64 60.1223 64 59.625C64 59.1277 63.8025 58.6508 63.4509 58.2992C63.0992 57.9475 62.6223 57.75 62.125 57.75H27.75V28.375ZM63.45 34.7C63.7812 34.3446 63.9615 33.8744 63.953 33.3887C63.9444 32.9029 63.7476 32.4395 63.4041 32.0959C63.0606 31.7524 62.5971 31.5556 62.1113 31.5471C61.6256 31.5385 61.1555 31.7188 60.8 32.05L49 43.85L42.825 37.675C42.4735 37.3239 41.9969 37.1266 41.5 37.1266C41.0032 37.1266 40.5266 37.3239 40.175 37.675L32.05 45.8C31.7188 46.1554 31.5385 46.6256 31.5471 47.1113C31.5557 47.5971 31.7524 48.0605 32.096 48.4041C32.4395 48.7476 32.903 48.9444 33.3887 48.9529C33.8745 48.9615 34.3446 48.7812 34.7 48.45L41.5 41.65L47.675 47.825C48.0266 48.1761 48.5032 48.3734 49 48.3734C49.4969 48.3734 49.9735 48.1761 50.325 47.825L63.45 34.7Z" fill="#303E49"/>
</g>
<defs>
<clipPath id="clip0_1_3499">
<rect width="40" height="40" fill="white" transform="translate(24 24)"/>
</clipPath>
</defs>
</svg>
