<svg width="88" height="88" viewBox="0 0 88 88" fill="none" xmlns="http://www.w3.org/2000/svg">
<rect width="88" height="88" rx="9" fill="#303E49"/>
<path d="M63.9998 53.2001C63.9998 55.0001 63.4998 56.7 62.5998 58.14C60.9398 60.92 57.8998 62.8 54.3998 62.8C50.8998 62.8 47.8398 60.92 46.1998 58.14C45.3198 56.7 44.7998 55.0001 44.7998 53.2001C44.7998 47.9001 49.0998 43.6001 54.3998 43.6001C59.6998 43.6001 63.9998 47.9001 63.9998 53.2001Z" stroke="white" stroke-width="3" stroke-miterlimit="10" stroke-linecap="round" stroke-linejoin="round"/>
<path d="M50.6599 53.2001L53.0199 55.5601L58.1399 50.8401" stroke="white" stroke-width="3" stroke-linecap="round" stroke-linejoin="round"/>
<path d="M64 37.1801C64 41.1201 62.98 44.6 61.38 47.62C59.62 45.76 57.14 44.6001 54.4 44.6001C49.1 44.6001 44.8 48.9001 44.8 54.2001C44.8 56.6601 45.74 58.9001 47.26 60.6001C46.52 60.9401 45.84 61.22 45.24 61.42C44.56 61.66 43.44 61.66 42.76 61.42C36.96 59.44 24 51.1801 24 37.1801C24 31.0001 28.98 26 35.12 26C38.74 26 41.98 27.7601 44 30.4601C46.02 27.7601 49.26 26 52.88 26C59.02 26 64 31.0001 64 37.1801Z" stroke="white" stroke-width="3" stroke-linecap="round" stroke-linejoin="round"/>
</svg>
