<svg width="88" height="88" viewBox="0 0 88 88" fill="none" xmlns="http://www.w3.org/2000/svg">
<rect width="88" height="88" rx="9" fill="#1D2225"/>
<path d="M56.725 48.8408C57.8064 46.2713 58.0554 43.4274 57.4368 40.7091C56.8182 37.9908 55.3633 35.5347 53.2765 33.6862C51.1898 31.8376 48.5761 30.6895 45.8031 30.4034C43.03 30.1172 40.237 30.7073 37.8167 32.0908L36.1633 29.1958C38.6927 27.7501 41.557 26.993 44.4703 27C47.3837 27.0071 50.2443 27.7779 52.7667 29.2358C60.25 33.5558 63.1167 42.8058 59.6283 50.5191L61.865 51.8091L54.9233 55.4991L54.6483 47.6424L56.725 48.8408ZM32.1417 38.4974C31.0602 41.0669 30.8113 43.9107 31.4299 46.629C32.0484 49.3473 33.5034 51.8034 35.5901 53.652C37.6769 55.5006 40.2905 56.6486 43.0636 56.9348C45.8367 57.221 48.6297 56.6309 51.05 55.2474L52.7033 58.1424C50.1739 59.5881 47.3097 60.3451 44.3963 60.3381C41.483 60.3311 38.6224 59.5602 36.1 58.1024C28.6167 53.7824 25.75 44.5324 29.2383 36.8191L27 35.5308L33.9417 31.8408L34.2167 39.6974L32.14 38.4991L32.1417 38.4974ZM46.7917 48.3824L42.0733 43.6691L37.36 48.3824L35.0033 46.0258L42.075 38.9558L46.79 43.6691L51.505 38.9558L53.8617 41.3124L46.79 48.3824H46.7917Z" fill="white"/>
</svg>
